<svg width="720" height="280" viewBox="0 0 720 280" fill="none" xmlns="http://www.w3.org/2000/svg">
  <defs>
    <linearGradient id="aranduGradient" x1="140" y1="20" x2="580" y2="220" gradientUnits="userSpaceOnUse">
      <stop offset="0" stop-color="#8BEF6F"/>
      <stop offset="0.45" stop-color="#2FD3D6"/>
      <stop offset="1" stop-color="#1498FF"/>
    </linearGradient>
    <linearGradient id="aranduText" x1="220" y1="150" x2="500" y2="230" gradientUnits="userSpaceOnUse">
      <stop offset="0" stop-color="#FFFFFF"/>
      <stop offset="1" stop-color="#E7F5F7"/>
    </linearGradient>
  </defs>

  <g transform="translate(360 82)">
    <path d="M0 -54L18 -32L0 -10L-18 -32L0 -54Z" fill="url(#aranduGradient)"/>
    <path d="M0 54L18 32L0 10L-18 32L0 54Z" fill="url(#aranduGradient)"/>
    <path d="M-28 -4L-4 -28H4L28 -4V4L4 28H-4L-28 4V-4Z" fill="url(#aranduGradient)"/>
    <path d="M-72 0L-36 -36L-24 -24L-48 0L-24 24L-36 36L-72 0Z" fill="url(#aranduGradient)" opacity="0.95"/>
    <path d="M72 0L36 -36L24 -24L48 0L24 24L36 36L72 0Z" fill="url(#aranduGradient)" opacity="0.95"/>
    <path d="M-104 -2H-72" stroke="url(#aranduGradient)" stroke-width="10" stroke-linecap="round"/>
    <path d="M104 -2H72" stroke="url(#aranduGradient)" stroke-width="10" stroke-linecap="round"/>
    <path d="M-136 16H-84" stroke="url(#aranduGradient)" stroke-width="10" stroke-linecap="round"/>
    <path d="M136 16H84" stroke="url(#aranduGradient)" stroke-width="10" stroke-linecap="round"/>
    <circle cx="-148" cy="16" r="10" stroke="url(#aranduGradient)" stroke-width="8"/>
    <circle cx="148" cy="16" r="10" stroke="url(#aranduGradient)" stroke-width="8"/>
    <circle cx="-116" cy="-2" r="7" stroke="url(#aranduGradient)" stroke-width="6"/>
    <circle cx="116" cy="-2" r="7" stroke="url(#aranduGradient)" stroke-width="6"/>
  </g>

  <text x="360" y="188" text-anchor="middle" fill="url(#aranduText)" font-family="Inter, Arial, sans-serif" font-size="74" font-weight="800" letter-spacing="4">
    ARANDU
  </text>
  <text x="360" y="226" text-anchor="middle" fill="url(#aranduGradient)" font-family="Inter, Arial, sans-serif" font-size="28" font-weight="600" letter-spacing="14">
    TECH
  </text>
  <path d="M160 217H290" stroke="url(#aranduGradient)" stroke-width="3" stroke-linecap="round" opacity="0.7"/>
  <path d="M430 217H560" stroke="url(#aranduGradient)" stroke-width="3" stroke-linecap="round" opacity="0.7"/>
</svg>
