<svg width="1200" height="900" viewBox="0 0 1200 900" fill="none" xmlns="http://www.w3.org/2000/svg">
  <rect width="1200" height="900" fill="#FFF7EB"/>
  <rect width="1200" height="290" fill="#D7ECFA"/>
  <path d="M0 460L120 380L300 460L520 310L710 430L930 290L1120 420L1200 390V900H0V460Z" fill="#6AA36C"/>
  <path d="M0 560L140 500L310 560L500 420L700 600L920 470L1110 580L1200 520V900H0V560Z" fill="#1F6F4A"/>
  <path d="M210 500H420L450 640H180L210 500Z" fill="#F4A259"/>
  <path d="M205 500L250 430L315 500H205Z" fill="#E56B1F"/>
  <path d="M315 500L360 430L425 500H315Z" fill="#FFD166"/>
  <rect x="580" y="470" width="190" height="170" rx="18" fill="#F8F0E3"/>
  <path d="M580 470L675 400L770 470H580Z" fill="#C98A54"/>
  <circle cx="980" cy="170" r="56" fill="#F59E0B"/>
  <text x="90" y="150" fill="#134B32" font-size="48" font-family="Arial, sans-serif" font-weight="700">Agenda comunitaria</text>
</svg>
