<svg width="1200" height="900" viewBox="0 0 1200 900" fill="none" xmlns="http://www.w3.org/2000/svg">
  <rect width="1200" height="900" fill="#EFE9DE"/>
  <rect x="70" y="110" width="1060" height="660" rx="26" fill="#F9F4EC"/>
  <path d="M70 590L190 520L360 590L520 480L720 620L900 490L1080 580L1130 560V770H70V590Z" fill="#CFC0AB"/>
  <rect x="260" y="340" width="410" height="220" fill="#D7C7B3"/>
  <rect x="300" y="300" width="330" height="54" fill="#BCA48B"/>
  <rect x="350" y="385" width="84" height="80" fill="#8B725D"/>
  <rect x="470" y="385" width="84" height="80" fill="#8B725D"/>
  <rect x="600" y="365" width="30" height="195" fill="#8B725D"/>
  <rect x="190" y="570" width="780" height="16" fill="#7A6756"/>
  <path d="M120 630H1040" stroke="#8A7765" stroke-width="8" stroke-linecap="round"/>
  <path d="M150 690H1070" stroke="#B4A28E" stroke-width="6" stroke-linecap="round"/>
  <text x="110" y="180" fill="#5B4D41" font-size="44" font-family="Arial, sans-serif" font-weight="700">Memoria ferroviaria de Honorio Bicalho</text>
</svg>
